<?xml version="1.0" encoding="UTF-8" standalone="no"?>
<!-- Created with Inkscape (http://www.inkscape.org/) -->

<svg
   version="1.1"
   id="svg1"
   width="224.42667"
   height="141.90668"
   viewBox="0 0 224.42667 141.90668"
   sodipodi:docname="mc_sym_decal_spot.eps"
   xmlns:inkscape="http://www.inkscape.org/namespaces/inkscape"
   xmlns:sodipodi="http://sodipodi.sourceforge.net/DTD/sodipodi-0.dtd"
   xmlns="http://www.w3.org/2000/svg"
   xmlns:svg="http://www.w3.org/2000/svg">
  <defs
     id="defs1" />
  <sodipodi:namedview
     id="namedview1"
     pagecolor="#ffffff"
     bordercolor="#000000"
     borderopacity="0.25"
     inkscape:showpageshadow="2"
     inkscape:pageopacity="0.0"
     inkscape:pagecheckerboard="0"
     inkscape:deskcolor="#d1d1d1">
    <inkscape:page
       x="0"
       y="0"
       inkscape:label="1"
       id="page1"
       width="224.42667"
       height="141.90668"
       margin="0"
       bleed="0" />
  </sodipodi:namedview>
  <g
     id="g1"
     inkscape:groupmode="layer"
     inkscape:label="1">
    <g
       id="group-R5">
      <path
         id="path2"
         d="M 1683.24,0.0117188 H 0 V 1064.33 H 1683.24 V 0.0117188"
         style="fill:#161a1f;fill-opacity:1;fill-rule:nonzero;stroke:none"
         transform="matrix(0.13333333,0,0,-0.13333333,0,141.90667)" />
      <path
         id="path3"
         d="M 1028.98,195.293 H 652.418 v 676.77 h 376.562 v -676.77"
         style="fill:#f1511b;fill-opacity:1;fill-rule:nonzero;stroke:none"
         transform="matrix(0.13333333,0,0,-0.13333333,0,141.90667)" />
      <path
         id="path4"
         d="m 677.266,533.672 c 0,137.293 64.293,259.578 164.422,338.379 -73.223,57.637 -165.594,92.012 -265.989,92.012 -237.699,0 -430.39,-192.688 -430.39,-430.391 0,-237.707 192.691,-430.391 430.39,-430.391 100.395,0 192.766,34.375 265.989,92.012 C 741.559,274.09 677.266,396.375 677.266,533.672"
         style="fill:#e71f22;fill-opacity:1;fill-rule:nonzero;stroke:none"
         transform="matrix(0.13333333,0,0,-0.13333333,0,141.90667)" />
      <path
         id="path5"
         d="m 1524.58,266.992 v 16.699 h -4.35 l -5.03,-11.496 -5.01,11.496 h -4.36 v -16.699 h 3.08 v 12.598 l 4.68,-10.86 h 3.21 l 4.7,10.879 v -12.617 z m -27.63,0 v 13.848 h 5.59 v 2.82 h -14.22 v -2.82 h 5.59 v -13.848 h 3.04"
         style="fill:#f79410;fill-opacity:1;fill-rule:nonzero;stroke:none"
         transform="matrix(0.13333333,0,0,-0.13333333,0,141.90667)" />
      <path
         id="path6"
         d="m 1107.66,964.063 c -100.39,0 -192.765,-34.375 -265.988,-92.012 100.125,-78.793 164.418,-201.086 164.418,-338.379 0,-137.297 -64.293,-259.582 -164.418,-338.379 73.223,-57.637 165.598,-92.012 265.988,-92.012 237.7,0 430.39,192.684 430.39,430.391 0,237.703 -192.69,430.391 -430.39,430.391"
         style="fill:#f79410;fill-opacity:1;fill-rule:nonzero;stroke:none"
         transform="matrix(0.13333333,0,0,-0.13333333,0,141.90667)" />
    </g>
  </g>
</svg>
